<?xml version="1.0"?>
<svg xmlns="http://www.w3.org/2000/svg" height="512px" viewBox="0 -10 511.99993 511" width="512px"><path d="m344.019531 247.277344-17.65625-61.25-61.285156-17.644532c-19.171875-5.519531-32.5625-23.300781-32.5625-43.242187s13.390625-37.71875 32.5625-43.242187l61.285156-17.640626 3.492188-12.117187c-32.945313-18.890625-71.8125-18.570313-105.617188 1.941406-17.703125 10.734375-39.699219 10.734375-57.398437.003907-93.8125-56.921876-200.347656 49.46875-156.792969 155.761718 13.339844 32.59375 19.277344 67.5 17.171875 100.941406-4.785156 76.285157 30.195312 144.152344 83.929688 179.234376 4.933593 3.21875 6.773437 2.457031 32.660156 2.175781 8.226562-.089844 14.847656-6.777344 14.847656-15v-107.261719c0-20.40625 16.019531-37.335938 35.707031-37.742188 20.527344-.484374 37.199219 17.402344 37.199219 38.617188v104.628906c0 8.285156 6.71875 15 15.007812 15 29.246094 0 30.832032.78125 35.808594-2.644531 53.605469-36.871094 84.539063-103.996094 80.726563-175.1875-.714844-13.089844-.308594-26.210937 1.175781-39.167969-9.601562-5.734375-17.035156-14.957031-20.261719-26.164062zm0 0" fill="#3AB3DF"/><path d="m501.183594 110.730469-77.230469-22.234375-22.246094-77.183594c-4.148437-14.398438-24.683593-14.4375-28.84375 0l-22.246093 77.183594-77.230469 22.234375c-14.414063 4.148437-14.433594 24.671875 0 28.828125l77.230469 22.230468 22.246093 77.183594c4.148438 14.398438 24.683594 14.4375 28.84375 0l22.246094-77.183594 77.230469-22.230468c14.410156-4.152344 14.433594-24.671875 0-28.828125zm0 0" fill="#3AB3DF"/></svg>
